<?xml version="1.0" encoding="UTF-8"?>
<svg id="_图层_1" data-name="图层 1" xmlns="http://www.w3.org/2000/svg" viewBox="0 0 141.46 141.46">
  <defs>
    <style>
      .cls-1 {
        fill: #0572d1;
      }

      .cls-2 {
        fill: #fff;
      }
    </style>
  </defs>
  <rect class="cls-1" width="141.46" height="141.46" rx="21.28" ry="21.28"/>
  <g>
    <path class="cls-2" d="M86.07,29.47h-12.86v16.49h12.81c12.45,0,22.54,10.48,22.54,23.4v2.01c0,12.92-10.09,23.4-22.54,23.4h-12.81v16.49h12.86c21.66,0,39.21-17.56,39.21-39.21v-3.37c0-21.66-17.56-39.21-39.21-39.21Z"/>
    <path class="cls-2" d="M49.43,28.99v59.71c-.06,4.65-3.84,8.4-8.5,8.4h-1.2c-4.7,0-8.52-3.81-8.52-8.52v-.48h-15.03c.35,13.51,11.39,24.37,24.98,24.37s24.1-10.37,24.91-23.45h.07V28.99h-16.72Z"/>
  </g>
</svg>